<svg xmlns="http://www.w3.org/2000/svg" width="865.76" height="682.89" viewBox="0 0 865.76 682.89"><ellipse cx="428.09" cy="597.81" rx="278.44" ry="41.9" transform="translate(-12.57 9.2) rotate(-1.21)" fill="#003d5c"/><ellipse cx="428.09" cy="597.81" rx="278.44" ry="41.9" transform="translate(-12.57 9.2) rotate(-1.21)" fill="#fff" opacity="0.7"/><path d="M735,425.08s87.79-82.84,39.56-192.83a189.18,189.18,0,0,0-62-76.45c-60.36-44.07-213.1-131.27-442.86-97.59a171.35,171.35,0,0,0-69.2,26C166.72,106.31,131,147,146.18,216.58c5.37,24.61,4.16,50.28-4.7,73.86-8.77,23.37-25.4,52-56.35,82.95,0,0-66,63.71-1.79,118.85a117,117,0,0,0,47.39,24.38C210.72,537.12,534.21,605.11,735,425.08Z" fill="#003d5c"/><path d="M735,425.08s87.79-82.84,39.56-192.83a189.18,189.18,0,0,0-62-76.45c-60.36-44.07-213.1-131.27-442.86-97.59a171.35,171.35,0,0,0-69.2,26C166.72,106.31,131,147,146.18,216.58c5.37,24.61,4.16,50.28-4.7,73.86-8.77,23.37-25.4,52-56.35,82.95,0,0-66,63.71-1.79,118.85a117,117,0,0,0,47.39,24.38C210.72,537.12,534.21,605.11,735,425.08Z" fill="#fff" opacity="0.7"/><path d="M335.81,211.34l67.09-21.29s57.23,11.5,70.85,13L467.7,141.6H404.78l-71.23,8.17Z" fill="#ef904b"/><rect x="531.59" y="72.25" width="278.89" height="549.61" rx="13.37" fill="#611d1c"/><rect x="512.38" y="72.36" width="278.89" height="549.61" rx="18.62" fill="#ef904b"/><path d="M776.74,108.15V552.56a21.57,21.57,0,0,1-21.57,21.57H546.73a21.57,21.57,0,0,1-21.57-21.57V108.15a26.22,26.22,0,0,1,26.22-26.23h36.9l11,25.87H703.46l12.32-25.87h34.74A26.22,26.22,0,0,1,776.74,108.15Z" fill="#ebebeb"/><rect x="520.69" y="478.02" width="260.73" height="19.38" fill="#ef904b"/><rect x="624.73" y="89.02" width="75.1" height="12.11" rx="6.06" fill="#611d1c"/><circle cx="754.33" cy="102.64" r="1.82" fill="#611d1c"/><circle cx="754.33" cy="109" r="1.82" fill="#611d1c"/><circle cx="754.33" cy="115.97" r="1.82" fill="#611d1c"/><rect x="520.84" y="215.48" width="260.42" height="19.38" fill="#ef904b"/><rect x="520.84" y="303.91" width="260.42" height="19.38" fill="#ef904b"/><rect x="525.23" y="390.21" width="251.64" height="19.38" fill="#ef904b"/><path d="M725.55,162.19h0a6.81,6.81,0,0,1,6.81,6.81v46.48a0,0,0,0,1,0,0H718.73a0,0,0,0,1,0,0V169A6.81,6.81,0,0,1,725.55,162.19Z" fill="#003d5c"/><path d="M647.72,162.19h0a6.81,6.81,0,0,1,6.81,6.81v46.48a0,0,0,0,1,0,0H640.91a0,0,0,0,1,0,0V169A6.81,6.81,0,0,1,647.72,162.19Z" fill="#87a654"/><path d="M673.46,162.19h0a6.81,6.81,0,0,1,6.81,6.81v46.48a0,0,0,0,1,0,0H666.65a0,0,0,0,1,0,0V169A6.81,6.81,0,0,1,673.46,162.19Z" fill="#003d5c"/><path d="M699.2,162.19h0A6.81,6.81,0,0,1,706,169v46.48a0,0,0,0,1,0,0H692.39a0,0,0,0,1,0,0V169A6.81,6.81,0,0,1,699.2,162.19Z" fill="#87a654"/><path d="M660.59,167.64h0a6.06,6.06,0,0,1,6.06,6.06v41.79a0,0,0,0,1,0,0H654.54a0,0,0,0,1,0,0V173.69A6.06,6.06,0,0,1,660.59,167.64Z" fill="#f29f04"/><path d="M686.33,167.64h0a6.06,6.06,0,0,1,6.06,6.06v41.79a0,0,0,0,1,0,0H680.28a0,0,0,0,1,0,0V173.69A6.06,6.06,0,0,1,686.33,167.64Z" fill="#f29f04"/><path d="M712.68,167.64h0a6.06,6.06,0,0,1,6.06,6.06v41.79a0,0,0,0,1,0,0H706.62a0,0,0,0,1,0,0V173.69a6.06,6.06,0,0,1,6.06-6.06Z" fill="#f29f04"/><path d="M738.42,167.64h0a6.06,6.06,0,0,1,6.06,6.06v41.79a0,0,0,0,1,0,0H732.36a0,0,0,0,1,0,0V173.69A6.06,6.06,0,0,1,738.42,167.64Z" fill="#87a654"/><path d="M721.76,424.27h0a6.81,6.81,0,0,1,6.81,6.81v46.48a0,0,0,0,1,0,0H714.95a0,0,0,0,1,0,0V431.09A6.81,6.81,0,0,1,721.76,424.27Z" fill="#003d5c"/><path d="M643.94,424.27h0a6.81,6.81,0,0,1,6.81,6.81v46.48a0,0,0,0,1,0,0H637.12a0,0,0,0,1,0,0V431.09A6.81,6.81,0,0,1,643.94,424.27Z" fill="#87a654"/><path d="M669.68,424.27h0a6.81,6.81,0,0,1,6.81,6.81v46.48a0,0,0,0,1,0,0H662.86a0,0,0,0,1,0,0V431.09a6.81,6.81,0,0,1,6.81-6.81Z" fill="#003d5c"/><path d="M695.42,424.27h0a6.81,6.81,0,0,1,6.81,6.81v46.48a0,0,0,0,1,0,0H688.6a0,0,0,0,1,0,0V431.09A6.81,6.81,0,0,1,695.42,424.27Z" fill="#87a654"/><path d="M656.81,429.73h0a6.06,6.06,0,0,1,6.06,6.06v41.79a0,0,0,0,1,0,0H650.75a0,0,0,0,1,0,0V435.78A6.06,6.06,0,0,1,656.81,429.73Z" fill="#f29f04"/><path d="M682.55,429.73h0a6.06,6.06,0,0,1,6.06,6.06v41.79a0,0,0,0,1,0,0H676.49a0,0,0,0,1,0,0V435.78A6.06,6.06,0,0,1,682.55,429.73Z" fill="#f29f04"/><path d="M708.89,429.73h0a6.06,6.06,0,0,1,6.06,6.06v41.79a0,0,0,0,1,0,0H702.84a0,0,0,0,1,0,0V435.78A6.06,6.06,0,0,1,708.89,429.73Z" fill="#f29f04"/><path d="M734.63,429.73h0a6.06,6.06,0,0,1,6.06,6.06v41.79a0,0,0,0,1,0,0H728.58a0,0,0,0,1,0,0V435.78a6.06,6.06,0,0,1,6.06-6.06Z" fill="#87a654"/><path d="M730.09,336h0a6.51,6.51,0,0,1,6.51,6.51v47.69a0,0,0,0,1,0,0h-13a0,0,0,0,1,0,0V342.51A6.51,6.51,0,0,1,730.09,336Z" fill="#87a654"/><path d="M743.11,344.18h0a6.51,6.51,0,0,1,6.51,6.51v39.52a0,0,0,0,1,0,0h-13a0,0,0,0,1,0,0V350.69A6.51,6.51,0,0,1,743.11,344.18Z" fill="#87a654"/><path d="M776.74,499.54v53a21.57,21.57,0,0,1-21.57,21.57H546.73a21.57,21.57,0,0,1-21.57-21.57v-32.1l.07,0s3,5.6,16.18,5.22h205S766.31,523.17,776.74,499.54Z" fill="#fff" opacity="0.44"/><path d="M641.21,545.55H655.3" fill="none" stroke="#611d1c" stroke-miterlimit="10"/><path d="M641.21,549.79H655.3" fill="none" stroke="#611d1c" stroke-miterlimit="10"/><path d="M641.21,554H655.3" fill="none" stroke="#611d1c" stroke-miterlimit="10"/><polygon points="746.9 546.16 746.9 554.26 751.74 554.26 751.74 550.21 755.51 550.21 755.51 554.26 760.42 554.26 760.42 546.16 754.01 539.75 746.9 546.16" fill="#611d1c"/><rect x="796.56" y="191.56" width="7.87" height="97.2" rx="3.94" fill="#ef904b"/><rect x="796.56" y="299.67" width="7.87" height="41.79" rx="3.94" fill="#ef904b"/><path d="M666.35,599.76c0,7.71-4.39,14.24-10.45,16.45a13,13,0,0,1-4.54.81c-8.28,0-15-7.73-15-17.26s6.71-17.26,15-17.26a13,13,0,0,1,4.54.81C662,585.52,666.35,592.05,666.35,599.76Z" fill="#611d1c"/><ellipse cx="655.9" cy="599.76" rx="10.45" ry="16.45" opacity="0.2"/><circle cx="609.28" cy="95.07" r="6.06" fill="#611d1c"/><polyline points="547.21 116.88 539.94 109 547.51 101.43" fill="none" stroke="#611d1c" stroke-miterlimit="10"/><path d="M562.93,162.19h0a6.81,6.81,0,0,1,6.81,6.81v46.48a0,0,0,0,1,0,0H556.12a0,0,0,0,1,0,0V169A6.81,6.81,0,0,1,562.93,162.19Z" fill="#87a654"/><path d="M588.67,162.19h0a6.81,6.81,0,0,1,6.81,6.81v46.48a0,0,0,0,1,0,0H581.86a0,0,0,0,1,0,0V169A6.81,6.81,0,0,1,588.67,162.19Z" fill="#87a654"/><path d="M575.8,167.64h0a6.06,6.06,0,0,1,6.06,6.06v41.79a0,0,0,0,1,0,0H569.75a0,0,0,0,1,0,0V173.69a6.06,6.06,0,0,1,6.06-6.06Z" fill="#f29f04"/><path d="M601.54,167.64h0a6.06,6.06,0,0,1,6.06,6.06v41.79a0,0,0,0,1,0,0H595.49a0,0,0,0,1,0,0V173.69a6.06,6.06,0,0,1,6.06-6.06Z" fill="#f29f04"/><path d="M594.88,250.61h13.63a0,0,0,0,1,0,0v46.48a6.81,6.81,0,0,1-6.81,6.81h0a6.81,6.81,0,0,1-6.81-6.81V250.61A0,0,0,0,1,594.88,250.61Z" transform="translate(1203.39 554.51) rotate(-180)" fill="#003d5c"/><path d="M569.14,250.61h13.63a0,0,0,0,1,0,0v46.48a6.81,6.81,0,0,1-6.81,6.81h0a6.81,6.81,0,0,1-6.81-6.81V250.61a0,0,0,0,1,0,0Z" transform="translate(1151.91 554.51) rotate(-180)" fill="#000000"/><path d="M608.51,256.06h12.11a0,0,0,0,1,0,0v41.79a6.06,6.06,0,0,1-6.06,6.06h0a6.06,6.06,0,0,1-6.06-6.06V256.06a0,0,0,0,1,0,0Z" transform="translate(1229.13 559.97) rotate(-180)" fill="#87a654"/><path d="M582.77,256.06h12.11a0,0,0,0,1,0,0v41.79a6.06,6.06,0,0,1-6.06,6.06h0a6.06,6.06,0,0,1-6.06-6.06V256.06A0,0,0,0,1,582.77,256.06Z" transform="translate(1177.65 559.97) rotate(-180)" fill="#f29f04"/><path d="M556.42,256.06h12.11a0,0,0,0,1,0,0v41.79a6.06,6.06,0,0,1-6.06,6.06h0a6.06,6.06,0,0,1-6.06-6.06V256.06a0,0,0,0,1,0,0Z" transform="translate(1124.96 559.97) rotate(-180)" fill="#87a654"/><circle cx="555.67" cy="542.37" r="2.27" fill="#611d1c"/><circle cx="563.24" cy="549.94" r="2.27" fill="#611d1c"/><circle cx="555.67" cy="558.12" r="2.27" fill="#611d1c"/><polyline points="555.67 542.37 563.24 549.94 555.67 558.12" fill="none" stroke="#611d1c" stroke-miterlimit="10"/><rect x="634.85" y="260.91" width="72.07" height="10.3" fill="#f2f2f2"/><path d="M657.93,288.76H647a7.56,7.56,0,0,1-7.57-7.57h0a7.56,7.56,0,0,1,7.57-7.57h11s-7.5,0-7.57,7.57A7.36,7.36,0,0,0,657.93,288.76Z" fill="#000000"/><rect x="653.33" y="276.05" width="72.07" height="10.3" transform="translate(1378.72 562.39) rotate(-180)" fill="#f2f2f2"/><rect x="640.91" y="291.19" width="72.07" height="10.3" transform="translate(1353.89 592.67) rotate(-180)" fill="#f2f2f2"/><path d="M633.34,260v.22a1.52,1.52,0,0,0,1.53,1.53h67.65a4.4,4.4,0,0,1,4.4,4.4h0a4.4,4.4,0,0,1-4.4,4.41H634.87a1.52,1.52,0,0,0-1.53,1.53h0a1.52,1.52,0,0,0,1.53,1.52h67.44a7.57,7.57,0,0,0,7.58-7.57h0a7.57,7.57,0,0,0-7.58-7.57H634.87A1.53,1.53,0,0,0,633.34,260Z" fill="#ccc"/><path d="M702.31,273.62h11a7.57,7.57,0,0,0,7.57-7.57h0a7.57,7.57,0,0,0-7.57-7.57h-11s7.51,0,7.58,7.57A7.36,7.36,0,0,1,702.31,273.62Z" fill="#87a654"/><path d="M726.91,275.15v.22a1.52,1.52,0,0,1-1.53,1.53H657.73a4.4,4.4,0,0,0-4.4,4.41h0a4.4,4.4,0,0,0,4.4,4.4h67.65a1.52,1.52,0,0,1,1.53,1.53h0a1.52,1.52,0,0,1-1.53,1.52H657.93a7.57,7.57,0,0,1-7.57-7.57h0a7.57,7.57,0,0,1,7.57-7.57h67.45A1.53,1.53,0,0,1,726.91,275.15Z" fill="#b3b3b3"/><path d="M714.49,290.29v.23A1.52,1.52,0,0,1,713,292H645.31a4.4,4.4,0,0,0-4.4,4.41h0a4.4,4.4,0,0,0,4.4,4.4H713a1.52,1.52,0,0,1,1.52,1.53h0a1.53,1.53,0,0,1-1.52,1.53H645.52a7.57,7.57,0,0,1-7.57-7.58h0a7.57,7.57,0,0,1,7.57-7.57H713A1.53,1.53,0,0,1,714.49,290.29Z" fill="#ccc"/><path d="M645.52,303.91h-11a7.57,7.57,0,0,1-7.57-7.58h0a7.57,7.57,0,0,1,7.57-7.57h11s-7.51,0-7.57,7.57A7.36,7.36,0,0,0,645.52,303.91Z" fill="#f29f04"/><rect x="624.56" y="346.91" width="72.07" height="10.3" fill="#f2f2f2"/><path d="M647.64,374.76h-11a7.57,7.57,0,0,1-7.57-7.57h0a7.57,7.57,0,0,1,7.57-7.57h11s-7.51,0-7.57,7.57A7.35,7.35,0,0,0,647.64,374.76Z" fill="#000000"/><rect x="643.03" y="362.05" width="72.07" height="10.3" transform="translate(1358.13 734.39) rotate(-180)" fill="#f2f2f2"/><rect x="630.61" y="377.19" width="72.07" height="10.3" transform="translate(1333.3 764.67) rotate(-180)" fill="#f2f2f2"/><path d="M623,346v.22a1.53,1.53,0,0,0,1.53,1.53h67.65a4.4,4.4,0,0,1,4.41,4.4h0a4.4,4.4,0,0,1-4.41,4.41H624.57A1.53,1.53,0,0,0,623,358.1h0a1.53,1.53,0,0,0,1.53,1.52H692a7.57,7.57,0,0,0,7.57-7.57h0a7.57,7.57,0,0,0-7.57-7.57H624.57A1.54,1.54,0,0,0,623,346Z" fill="#ccc"/><path d="M692,359.62h11a7.57,7.57,0,0,0,7.57-7.57h0a7.57,7.57,0,0,0-7.57-7.57H692s7.5,0,7.57,7.57A7.35,7.35,0,0,1,692,359.62Z" fill="#87a654"/><path d="M716.61,361.15v.22a1.52,1.52,0,0,1-1.52,1.53H647.43a4.4,4.4,0,0,0-4.4,4.41h0a4.4,4.4,0,0,0,4.4,4.4h67.66a1.52,1.52,0,0,1,1.52,1.53h0a1.52,1.52,0,0,1-1.52,1.52H647.64a7.57,7.57,0,0,1-7.57-7.57h0a7.57,7.57,0,0,1,7.57-7.57h67.45A1.53,1.53,0,0,1,716.61,361.15Z" fill="#b3b3b3"/><path d="M704.2,376.29v.23a1.53,1.53,0,0,1-1.53,1.52H635a4.41,4.41,0,0,0-4.41,4.41h0a4.41,4.41,0,0,0,4.41,4.4h67.65a1.53,1.53,0,0,1,1.53,1.53h0a1.54,1.54,0,0,1-1.53,1.53H635.22a7.57,7.57,0,0,1-7.57-7.58h0a7.57,7.57,0,0,1,7.57-7.57h67.45A1.54,1.54,0,0,1,704.2,376.29Z" fill="#ccc"/><path d="M635.22,389.91h-11a7.57,7.57,0,0,1-7.57-7.58h0a7.57,7.57,0,0,1,7.57-7.57h11s-7.5,0-7.57,7.57A7.37,7.37,0,0,0,635.22,389.91Z" fill="#f29f04"/><path d="M662.28,107.79,776.74,203V108.15s.24-23.94-26.22-26.23H715.78l-12.32,25.87Z" fill="#fff" opacity="0.43"/><path d="M776.74,242.49,609.28,107.79h-10l-11-25.87h-36.9s-24.34-.07-26.22,26.23v21.49L776.74,333.5Z" fill="#fff" opacity="0.43"/><polygon points="525.16 246.94 776.74 449.21 776.74 470.26 525.16 267.97 525.16 246.94" fill="#fff" opacity="0.43"/><path d="M776.74,533.32v19.24a21.57,21.57,0,0,1-21.57,21.57h-3.4L525.16,384.05V312.87Z" fill="#fff" opacity="0.43"/><path d="M529,483.25s14.58,13.06,21.24,13.36c0,0,7-3.64,10.6-8.18l-6.27-13.8-7.35-.73A93.75,93.75,0,0,1,529,483.25Z" fill="#000000"/><path d="M529,483.25s14.58,13.06,21.24,13.36c0,0,7-3.64,10.6-8.18l-6.27-13.8-7.35-.73A93.75,93.75,0,0,1,529,483.25Z" opacity="0.2"/><path d="M541.73,493s11.3-6.1,16.41-10.48l2.69,5.91s-2.72,3.64-10.6,8.18C550.23,496.61,547.46,497,541.73,493Z" opacity="0.2"/><path d="M519.35,475.71l9.64,7.54s10.64-4.2,18.22-9.35l-11-11.76Z" fill="#f5ba93"/><path d="M536.17,462.14l-16.82,13.57,4.38,3.43a85.84,85.84,0,0,0,8.33-5.55,87.92,87.92,0,0,0,8.18-7Z" fill="#ef6d53"/><path d="M406.34,358a106.46,106.46,0,0,0-14.14,9.41h0C372.3,382.6,347.65,407,347.65,407l-20.12-13c14.71-14.79,17.1-27.41,17.1-27.41l28.15-3.53Z" fill="#f5ba93"/><path d="M392.2,367.45h0C372.3,382.6,347.65,407,347.65,407l-20.12-13c14.71-14.79,17.1-27.41,17.1-27.41s4.21,4.62-7.59,19.47c0,0-8.47,7.88-1.5,8.49L347.65,398S382.86,367.29,392.2,367.45Z" fill="#ef6d53"/><path d="M209.8,466.16,197.33,305.91a39.3,39.3,0,0,1,13.75-33.06c14.79-12.53,43.72-25,99.32-18.61l86.31.12s67.52-1.22,67.72,53.59L459,466.16l-13.22,27.72L220.27,499.4Z" fill="#ef904b"/><path d="M238,313.4s-40.88-8.78-40.88,27.56c0,0-8.18,42.09,27.86,86,0,0,19.08,24.53,41.79,32.71,0,0,46.63-21.2,80.85-52.7l-23-14.83V352.77L301.32,331s-5.15-6.75-28.16-9.89Z" fill="#000000"/><path d="M266,387.46s-34.3,12.6-44.75,34.68c0,0-6.92-10.95,16.6-30.92,0,0,10.68-6.91,7.11-25.1,0,0-7.4-30.61-15-43.33,0,0,11.15,7.27,16.3,27.86C246.21,350.65,255.45,379.75,266,387.46Z" fill="#000000"/><path d="M266,387.46s-34.3,12.6-44.75,34.68c0,0-6.92-10.95,16.6-30.92,0,0,10.68-6.91,7.11-25.1,0,0-7.4-30.61-15-43.33,0,0,11.15,7.27,16.3,27.86C246.21,350.65,255.45,379.75,266,387.46Z" opacity="0.2"/><path d="M534.49,463.6l-18.78,17-86.13-58.42S383.27,481.37,344.11,481L387,427.26l35.27-28.05L473,394l61.47,58.52Z" fill="#003d5c"/><path d="M534.49,463.6l-18.78,17-86.13-58.42S383.27,481.37,344.11,481L387,427.26l35.27-28.05L473,394l61.47,58.52Z" opacity="0.2"/><path d="M536.17,462.14l11,11.76s18.16-10.6,25.73-24.23L562.68,439.1Z" fill="#f5ba93"/><path d="M536.17,462.14l4.18,4.45s21.43-12.4,26.56-23.14l-4.23-4.35Z" fill="#ef6d53"/><path d="M612.13,446.54c-7.61,7.59-32.53,31.75-51.3,41.89a38.59,38.59,0,0,1-6.7-4.27c-3.22-2.56-6.48-6.12-6.92-10.26,0,0,16.95-9.69,25.73-24.23,0,0,9.92-2.69,20.42-4.5,6.39-1.1,13-1.88,17.7-1.51A1.69,1.69,0,0,1,612.13,446.54Z" fill="#000000"/><path d="M612.13,446.54c-7.61,7.59-32.53,31.75-51.3,41.89a38.59,38.59,0,0,1-6.7-4.27l24.37-15.93a43,43,0,0,0,9.36-8.23c5.77-6.84,6.23-11.78,5.5-14.83,6.39-1.1,13-1.88,17.7-1.51A1.69,1.69,0,0,1,612.13,446.54Z" opacity="0.2"/><polygon points="250.44 625.61 233.79 625.61 240.45 554.75 262.25 556.26 250.44 625.61" fill="#ef904b"/><path d="M240.45,554.75,239,569.93s13.85-.95,12.33,18.13l-6.1,37.55h5.19l11.81-69.35Z" opacity="0.2"/><polygon points="413.36 625.61 430.01 625.61 423.35 554.75 401.55 556.26 413.36 625.61" fill="#ef904b"/><path d="M423.35,554.75l1.43,15.18s-13.84-.95-12.33,18.13l6.11,37.55h-5.2l-11.81-69.35Z" opacity="0.2"/><path d="M465.31,195.19s-26.68,1.52-39.4-9.38c0,0-16.66-16.86-22.26-3.74,0,0-10.15-8.53-16.86.09a29,29,0,0,1-3.33,3.67A72.94,72.94,0,0,1,341.73,204,130.11,130.11,0,0,0,345,180.17a37.32,37.32,0,0,0-2.31-14.42c-2.14-5.76-5-14.81-4.8-21.14a2.29,2.29,0,0,1,2.6-2.17c2.91.38,9.22-.72,21.57-9.93,0,0,21.5-17.26,40.27-2.42,0,0,11.51-12.42,38.76,2.72,0,0,9.62,4.93,17.92,3a2.83,2.83,0,0,1,3.48,2.66,98.82,98.82,0,0,1-1.39,21.62A52.29,52.29,0,0,0,460,171.74C460.19,178.94,461.22,189.42,465.31,195.19Z" fill="#fff"/><line x1="403.65" y1="182.07" x2="402.29" y2="130.09" fill="none" stroke="#ccc" stroke-miterlimit="10"/><path d="M414.1,133.12s8.48-1.52,17.87,5.75c0,0,9.38,8.78,18.77,9.08" fill="none" stroke="#ccc" stroke-miterlimit="10"/><path d="M412.28,141.6s8.48-1.52,17.87,5.75c0,0,9.39,8.78,18.77,9.08" fill="none" stroke="#ccc" stroke-miterlimit="10"/><path d="M410.47,153.1s8.47-1.51,17.86,5.76c0,0,9.39,8.78,18.78,9.08" fill="none" stroke="#ccc" stroke-miterlimit="10"/><path d="M410.47,165.82s8.47-1.51,17.86,5.75c0,0,9.39,8.79,18.78,9.09" fill="none" stroke="#ccc" stroke-miterlimit="10"/><path d="M349.9,154.31s9.26-.54,18.27-11a25.24,25.24,0,0,1,9.15-6.84,21.7,21.7,0,0,1,9.22-1.83" fill="none" stroke="#ccc" stroke-miterlimit="10"/><path d="M353.84,162.79s9.26-.55,18.26-11a25.36,25.36,0,0,1,9.16-6.84,21.49,21.49,0,0,1,9.22-1.83" fill="none" stroke="#ccc" stroke-miterlimit="10"/><path d="M357.17,172.79s9.26-.55,18.26-11a25.36,25.36,0,0,1,9.16-6.84,21.79,21.79,0,0,1,9.22-1.83" fill="none" stroke="#ccc" stroke-miterlimit="10"/><path d="M359,185.5s9.26-.54,18.26-11a25.28,25.28,0,0,1,9.16-6.84,21.64,21.64,0,0,1,9.22-1.83" fill="none" stroke="#ccc" stroke-miterlimit="10"/><path d="M467.09,199.74C432,200.34,422,185.5,422,185.5c-11.52-10.59-19.67,1.23-19.67,1.23-7.1-10.36-21.71,4.85-24.51,7.94a12.49,12.49,0,0,1-1.28,1.24c-9.87,8.26-34.77,11.68-34.77,11.68V204a72.94,72.94,0,0,0,41.73-18.15,29,29,0,0,0,3.33-3.67c6.71-8.62,16.86-.09,16.86-.09,5.6-13.12,22.26,3.74,22.26,3.74,12.72,10.9,39.4,9.38,39.4,9.38Z" fill="#ccc"/><polygon points="173.66 112.22 167.46 112.22 183.05 178.84 253.5 165.81 249.37 158.86 187.9 170.36 173.66 112.22" fill="#ef904b"/><polygon points="173.66 112.22 167.46 112.22 183.05 178.84 253.5 165.81 249.37 158.86 187.9 170.36 173.66 112.22" opacity="0.2"/><polygon points="216.36 48.02 173.66 112.22 187.9 170.36 249.37 158.86 281.47 91.93 233.01 93.75 216.36 48.02" fill="#fff"/><line x1="187.9" y1="170.36" x2="233.02" y2="93.75" fill="none" stroke="#ccc" stroke-miterlimit="10"/><polygon points="167.46 112.22 210.46 42.77 216.36 48.02 173.66 112.22 167.46 112.22" fill="#ef904b"/><polygon points="253.5 165.81 249.37 158.86 281.47 91.93 286.01 101.02 253.5 165.81" fill="#ef904b"/><line x1="240.89" y1="148.86" x2="214.82" y2="148.86" fill="none" stroke="#ccc" stroke-miterlimit="10"/><line x1="223.63" y1="130.39" x2="249.37" y2="130.39" fill="none" stroke="#ccc" stroke-miterlimit="10"/><line x1="228.78" y1="118.58" x2="254.98" y2="118.58" fill="none" stroke="#ccc" stroke-miterlimit="10"/><line x1="236.5" y1="104.32" x2="262.84" y2="104.32" fill="none" stroke="#ccc" stroke-miterlimit="10"/><line x1="210.48" y1="76.16" x2="222.11" y2="99.81" fill="none" stroke="#ccc" stroke-miterlimit="10"/><line x1="201.83" y1="86.79" x2="212.73" y2="110.71" fill="none" stroke="#ccc" stroke-miterlimit="10"/><line x1="194.52" y1="98.75" x2="205.46" y2="122.52" fill="none" stroke="#ccc" stroke-miterlimit="10"/><line x1="185.17" y1="113.43" x2="196.37" y2="137.96" fill="none" stroke="#ccc" stroke-miterlimit="10"/><polygon points="74.81 298.93 122.96 362.83 169.25 328.4 122.03 263.38 74.81 298.93" fill="#ef904b"/><polygon points="102.17 313.1 125.42 342.95 150.82 324.07 128.41 293.48 102.17 313.1" fill="#fff" opacity="0.43"/><path d="M74.81,298.93s-7.27,4.55-5.45,10.3l50.87,66s-3.63-11.5,2.73-12.41Z" fill="#ef904b"/><path d="M74.81,298.93s-7.27,4.55-5.45,10.3l50.87,66s-3.63-11.5,2.73-12.41Z" opacity="0.2"/><path d="M177.77,339.81l-8.52-11.41L123,362.83s-8.18,1.21-2.73,12.41c0,0,4.93,7,15-2.12Z" fill="#fff"/><rect x="90.3" y="291.11" width="33.61" height="3.93" rx="1.97" transform="translate(-153.82 121.95) rotate(-36.67)" fill="#fff" opacity="0.43"/><path d="M291.34,299.44a16.3,16.3,0,0,1-13.12,8.38,46.8,46.8,0,0,1-5.06.11c-8.16-.27-20-2.87-26.63-14.53h0q-.66-1.14-1.23-2.4l-2.43-23,4.85-20.29L292.84,258S299.1,285.13,291.34,299.44Z" fill="#f5ba93"/><path d="M273.16,307.93v14.86C269.22,335.21,254.68,334,254.68,334c-20-4.24-16.65-20.6-16.65-20.6l8.5-20C253.15,305.06,265,307.66,273.16,307.93Z" fill="#f5ba93"/><path d="M294.61,269c0-.75-.85-6.2-.85-6.2-20.88,5.45-40-6.67-40-6.67,0,24.53-14.84,23.92-14.84,23.92a11.23,11.23,0,0,1-6.66-3.93,18.54,18.54,0,0,1-3.34-5.76c-2.69-6.62-2.63-11.5-1.1-15.09,4.13-9.72,19-10,19-10-1.51-10.6,3.63-14.1,3.63-14.1a17.15,17.15,0,0,1,3.57-2.79h0c15.61-9.1,38.22,13.56,38.22,13.56a23.56,23.56,0,0,1,6.52,3.33,15.71,15.71,0,0,1,2.69,2.45,14.92,14.92,0,0,1,3.42,7.1C307.23,267.74,294.61,269,294.61,269Z" fill="#c95e01"/><path d="M294.61,269c0-.75-.85-6.2-.85-6.2-20.88,5.45-40-6.67-40-6.67,0,24.53-14.84,23.92-14.84,23.92a11.23,11.23,0,0,1-6.66-3.93h0s-3.34-9.69,7.57-18.78c0,0-4.17-2.86-12-2.07,4.13-9.72,19-10,19-10-1.51-10.6,3.63-14.1,3.63-14.1a17.15,17.15,0,0,1,3.57-2.79c-.08.24-3.66,11.88,0,16.63,0,0,3.7-10,13.39-8.22,0,0-9.69,4.54-7.27,12.11,0,0,3.34,1.82,10.6-2.12,0,0,7.27-3,20.9-1.51a46.46,46.46,0,0,1,9.81,2.45,14.92,14.92,0,0,1,3.42,7.1C307.23,267.74,294.61,269,294.61,269Z" opacity="0.2"/><path d="M252.76,300.91s-1.57,6.76,11.69,12.81c0,0,8.1,5.74,8.71,9.07V307.93S259.62,307.8,252.76,300.91Z" fill="#ef6d53"/><circle cx="240.91" cy="285.7" r="9.54" fill="#f5ba93"/><polygon points="375.88 367.69 343.24 373.55 338.96 312.47 372.42 307.95 375.88 367.69" fill="#003d5c"/><polygon points="343.24 373.55 340.21 373.55 336.58 311.17 372.01 306.02 372.42 307.95 338.96 312.47 343.24 373.55" fill="#003d5c"/><polygon points="343.24 373.55 340.21 373.55 336.58 311.17 372.01 306.02 372.42 307.95 338.96 312.47 343.24 373.55" opacity="0.2"/><path d="M360.37,347.32c-.23,3.61-7.18,5.29-10.71,5.91a.31.31,0,0,0,0,.61c3.08.65,4.56,1.9,5.26,2.84a2.19,2.19,0,0,1,.16,2.36c-2,3.71-7.8,3.78-9.22,3.74a.36.36,0,0,0-.38.3,54.88,54.88,0,0,1-3.87,12.09h0c-25.13,39.67-63,57.84-63,57.84-27.26,16.05-52.73-18.37-52.73-18.37a86.07,86.07,0,0,1,34.51-24.85,42.16,42.16,0,0,0,6.71,9.3c12.11-9.08,45.42-28.77,45.42-28.77,7.88-3,10.3-11.81,10.3-11.81,5.45-22.1,11.31-24.49,11.31-24.49,11.41-10.18,15.35-10.23,16.61-9.61a1.13,1.13,0,0,1,.54.49c3.33,4.24-8.06,12.53-8.06,12.53,9.28-2.55,13.58-2.17,15.56-1.39a2.16,2.16,0,0,1,1,3.25c-2.28,3.27-9.36,5.29-9.36,5.29C361.88,343.69,360.37,347.32,360.37,347.32Z" fill="#f5ba93"/><path d="M267.1,399.1s-7.57,3.33-9.69,13.93c0,0-1.51,8.78-6.06,3.94,0,0-5.54-7.6-2.92-21.36,0,0,6.46-3.3,12-5.81C260.39,389.8,261.65,392.74,267.1,399.1Z" fill="#ef6d53"/><path d="M343.22,337.44c-5.65,2.52-4.05.49-4.05.49l2.38-2.74a56.12,56.12,0,0,1,6.12-6c3.37-2.84,3.08-4.66,3.07-4.75a1.13,1.13,0,0,1,.54.49C354.61,329.15,343.22,337.44,343.22,337.44Z" fill="#ef6d53"/><path d="M359.73,339.3c-2.28,3.27-9.36,5.29-9.36,5.29s-10.9-.6-3.93-3.93c0,0,7.8-4,13.58-3.28A2.16,2.16,0,0,1,359.73,339.3Z" fill="#ef6d53"/><path d="M360.37,347.32c-.23,3.61-7.18,5.29-10.71,5.91,0,0-3.22-1.67.71-4.09C350.37,349.14,357.34,346.11,360.37,347.32Z" fill="#ef6d53"/><path d="M355.34,358a2.2,2.2,0,0,1-.27,1c-2,3.71-7.8,3.78-9.22,3.74a.36.36,0,0,0-.38.3,54.88,54.88,0,0,1-3.87,12.09c.07-.34,2.72-11.59,2.54-16a.37.37,0,0,1,.41-.39,39.32,39.32,0,0,0,10.79-.72Z" fill="#ef6d53"/><path d="M273.16,456.6s44.51,45.16,83.88,17.9a261.72,261.72,0,0,0,38.21-28.92A100.07,100.07,0,0,0,408.43,431c7.38-9.94,22.39-27.79,32.65-24,0,0,57.37,16.66,93.41,56.63l36.94-32.1-80.55-62.07s-47.74-36.47-73.23-19.3c0,0-24,10.82-70,56.84C347.65,407,308.59,441.11,273.16,456.6Z" fill="#003d5c"/><path d="M273.16,456.6a78.34,78.34,0,0,0,11.41,9.56s61.56-40.71,63.08-59.19C347.65,407,315.25,436,273.16,456.6Z" opacity="0.2"/><path d="M431.82,481l17.61-96.86a20,20,0,0,1,23.4-16.06l17.85,3.4A20,20,0,0,1,506.6,394.7L484.3,515.87a58.38,58.38,0,0,1-56.86,47.82l-188.26,1.8a58.37,58.37,0,0,1-57.75-46.65L158.11,405.19a28.86,28.86,0,0,1,23.43-34.25l12.91-2.19A16.17,16.17,0,0,1,213,381.47l18.36,90.35Z" fill="#611d1c"/><rect x="229.55" y="459.67" width="202.58" height="52.39" rx="26.19" fill="#ef904b"/><path d="M432.13,475.42v20.87a15.75,15.75,0,0,1-15.75,15.76H245.31a15.76,15.76,0,0,1-15.76-15.76V475.42a15.73,15.73,0,0,1,15.76-15.75H416.38A15.75,15.75,0,0,1,432.13,475.42Z" fill="#fff" opacity="0.2"/><path d="M432.74,481.78v20.87A15.76,15.76,0,0,1,417,518.41H245.91a15.75,15.75,0,0,1-15.75-15.76V481.78A15.75,15.75,0,0,1,245.91,466H417A15.77,15.77,0,0,1,432.74,481.78Z" fill="#ef904b"/><path d="M432.74,489.39v13.26A15.76,15.76,0,0,1,417,518.41H245.91a15.75,15.75,0,0,1-15.75-15.76V481.78a15.76,15.76,0,0,1,.91-5.29c6.7,12.27,21.24,28.76,50.87,28l80.78,0S405,502.68,432.74,489.39Z" opacity="0.2"/></svg>